<?xml version="1.0" encoding="UTF-8" standalone="no"?>
<!DOCTYPE svg PUBLIC "-//W3C//DTD SVG 1.1//EN"
 "http://www.w3.org/Graphics/SVG/1.1/DTD/svg11.dtd">
<!-- Generated by graphviz version 12.2.1 (20241206.2353)
 -->
<!-- Title: G Pages: 1 -->
<svg width="399pt" height="181pt"
 viewBox="0.00 0.00 398.75 181.00" xmlns="http://www.w3.org/2000/svg" xmlns:xlink="http://www.w3.org/1999/xlink">
<g id="graph0" class="graph" transform="scale(1 1) rotate(0) translate(4 177)">
<title>G</title>
<polygon fill="white" stroke="none" points="-4,4 -4,-177 394.75,-177 394.75,4 -4,4"/>
<g id="clust1" class="cluster">
<title>cluster_/src</title>
<polygon fill="#ffdab9" stroke="#ffdab9" points="8,-8 8,-165 382.75,-165 382.75,-8 8,-8"/>
<text text-anchor="middle" x="195.38" y="-142" font-family="Times,serif" font-size="20.00">/src</text>
</g>
<!-- /src/facade.rs -->
<g id="node1" class="node">
<title>/src/facade.rs</title>
<polygon fill="#ffffff" stroke="black" points="174,-52 109.25,-52 109.25,-16 174,-16 174,-52"/>
<text text-anchor="middle" x="141.62" y="-28.95" font-family="Times,serif" font-size="14.00">facade.rs</text>
</g>
<!-- /src/client.rs -->
<g id="node2" class="node">
<title>/src/client.rs</title>
<polygon fill="#ffffff" stroke="black" points="269.5,-89 210,-89 210,-53 269.5,-53 269.5,-89"/>
<text text-anchor="middle" x="239.75" y="-65.95" font-family="Times,serif" font-size="14.00">client.rs</text>
</g>
<!-- /src/facade.rs&#45;&gt;/src/client.rs -->
<g id="edge1" class="edge">
<title>/src/facade.rs&#45;&gt;/src/client.rs</title>
<path fill="none" stroke="black" d="M174.37,-46.22C182.28,-49.26 190.85,-52.56 199.09,-55.73"/>
<polygon fill="black" stroke="black" points="197.64,-58.93 208.23,-59.25 200.15,-52.39 197.64,-58.93"/>
</g>
<!-- /src/jsonrpc.rs -->
<g id="node5" class="node">
<title>/src/jsonrpc.rs</title>
<polygon fill="#ffffff" stroke="black" points="374.75,-89 305.5,-89 305.5,-53 374.75,-53 374.75,-89"/>
<text text-anchor="middle" x="340.12" y="-65.95" font-family="Times,serif" font-size="14.00">jsonrpc.rs</text>
</g>
<!-- /src/client.rs&#45;&gt;/src/jsonrpc.rs -->
<g id="edge2" class="edge">
<title>/src/client.rs&#45;&gt;/src/jsonrpc.rs</title>
<path fill="none" stroke="black" d="M270,-71C277.54,-71 285.84,-71 293.99,-71"/>
<polygon fill="black" stroke="black" points="293.81,-74.5 303.81,-71 293.81,-67.5 293.81,-74.5"/>
</g>
<!-- /src/main.rs -->
<g id="node3" class="node">
<title>/src/main.rs</title>
<polygon fill="#ffffff" stroke="black" points="73.25,-70 16,-70 16,-34 73.25,-34 73.25,-70"/>
<text text-anchor="middle" x="44.62" y="-46.95" font-family="Times,serif" font-size="14.00">main.rs</text>
</g>
<!-- /src/main.rs&#45;&gt;/src/facade.rs -->
<g id="edge3" class="edge">
<title>/src/main.rs&#45;&gt;/src/facade.rs</title>
<path fill="none" stroke="black" d="M73.61,-46.7C81.13,-45.27 89.43,-43.7 97.56,-42.16"/>
<polygon fill="black" stroke="black" points="98.17,-45.61 107.35,-40.31 96.87,-38.73 98.17,-45.61"/>
</g>
<!-- /src/main.rs&#45;&gt;/src/client.rs -->
<g id="edge4" class="edge">
<title>/src/main.rs&#45;&gt;/src/client.rs</title>
<path fill="none" stroke="black" d="M73.45,-56.33C84.57,-57.95 97.49,-59.72 109.25,-61 138.95,-64.24 172.61,-66.81 198.16,-68.53"/>
<polygon fill="black" stroke="black" points="197.92,-72.02 208.13,-69.18 198.38,-65.04 197.92,-72.02"/>
</g>
<!-- /src/lib.rs -->
<g id="node4" class="node">
<title>/src/lib.rs</title>
<polygon fill="#ffffff" stroke="black" points="168.62,-126 114.62,-126 114.62,-90 168.62,-90 168.62,-126"/>
<text text-anchor="middle" x="141.62" y="-102.95" font-family="Times,serif" font-size="14.00">lib.rs</text>
</g>
<!-- /src/lib.rs&#45;&gt;/src/client.rs -->
<g id="edge5" class="edge">
<title>/src/lib.rs&#45;&gt;/src/client.rs</title>
<path fill="none" stroke="black" d="M168.89,-97.89C178.3,-94.27 189.12,-90.1 199.39,-86.15"/>
<polygon fill="black" stroke="black" points="200.32,-89.54 208.4,-82.68 197.81,-83.01 200.32,-89.54"/>
</g>
</g>
</svg>
